<svg width="32" height="32" viewBox="0 0 32 32" fill="none" xmlns="http://www.w3.org/2000/svg">
<circle cx="16" cy="16" r="16" fill="#00D149"/>
<path d="M7.19641 26.3616L7.49563 27.0396C7.54091 27.1182 7.63375 27.1431 7.71224 27.0977L8.3104 26.6601C8.41267 26.5878 8.38815 26.4318 8.26437 26.3986L7.35152 26.154C7.24321 26.125 7.14396 26.2479 7.19641 26.3616Z" fill="white"/>
<path d="M22.2686 18.0113L22.2531 18.0071C22.2108 17.9792 22.1882 17.9399 22.2161 17.8976L22.2203 17.8821C22.2482 17.8398 22.2833 17.8326 22.3297 17.845C22.372 17.8729 22.3946 17.9122 22.3667 17.9545L22.2935 17.9183L22.3625 17.97C22.3346 18.0124 22.2995 18.0196 22.2686 18.0113ZM22.4497 17.6446C22.4497 17.6446 22.4343 17.6405 22.4497 17.6446C22.3878 17.6281 22.3848 17.5774 22.3973 17.5309L22.4014 17.5155C22.4139 17.469 22.4686 17.4504 22.5109 17.4783C22.5573 17.4908 22.5758 17.5456 22.5478 17.5879C22.5199 17.6302 22.4807 17.6529 22.4497 17.6446ZM22.6041 17.2542C22.5577 17.2418 22.5392 17.187 22.5516 17.1405L22.5558 17.125C22.5683 17.0785 22.623 17.06 22.6652 17.0879C22.7117 17.1004 22.7301 17.1551 22.7022 17.1975L22.6981 17.213C22.6898 17.244 22.6505 17.2667 22.6041 17.2542ZM22.7585 16.8638C22.712 16.8514 22.6936 16.7966 22.706 16.7501C22.7185 16.7036 22.7732 16.6851 22.8041 16.6934C22.8505 16.7058 22.8732 16.7451 22.8607 16.7916L22.8566 16.807C22.8441 16.8535 22.8049 16.8762 22.7585 16.8638ZM22.8819 16.4651C22.8355 16.4526 22.8128 16.4134 22.8253 16.3669L22.8294 16.3514C22.8419 16.3049 22.8811 16.2822 22.9275 16.2946C22.974 16.3071 22.9966 16.3464 22.9841 16.3928L22.9068 16.3721L22.98 16.4083C22.9675 16.4548 22.9283 16.4775 22.8819 16.4651ZM22.9898 16.0622C22.9434 16.0498 22.9208 16.0105 22.9332 15.964C22.9457 15.9175 22.9849 15.8948 23.0313 15.9073C23.0778 15.9197 23.1004 15.959 23.0879 16.0055L23.0838 16.021C23.0755 16.0519 23.0362 16.0746 22.9898 16.0622ZM23.0781 15.6707C23.0317 15.6583 23.0091 15.619 23.0215 15.5725L23.0257 15.557C23.0382 15.5105 23.0774 15.4878 23.1238 15.5003C23.1702 15.5127 23.1929 15.552 23.1804 15.5985L23.1031 15.5777L23.1804 15.5985C23.168 15.6449 23.1287 15.6676 23.0781 15.6707ZM23.1552 15.2595C23.1087 15.2471 23.0861 15.2078 23.0944 15.1768L23.0985 15.1613C23.111 15.1149 23.1503 15.0922 23.1853 15.085C23.2318 15.0974 23.2544 15.1367 23.2616 15.1718L23.2574 15.1873C23.245 15.2338 23.2057 15.2565 23.1552 15.2595ZM23.2012 14.8401C23.1703 14.8318 23.1322 14.7884 23.1405 14.7574C23.1529 14.7109 23.1808 14.6686 23.2273 14.681C23.2778 14.6779 23.3005 14.7172 23.3035 14.7679L23.2993 14.7833C23.291 14.8143 23.2672 14.8412 23.2012 14.8401ZM23.2318 14.4165C23.2009 14.4082 23.1782 14.3689 23.171 14.3338L23.1752 14.3183C23.1722 14.2677 23.2114 14.245 23.262 14.2419C23.3126 14.2389 23.3352 14.2781 23.3382 14.3288L23.2567 14.3235L23.3382 14.3288C23.3412 14.3794 23.302 14.4021 23.2514 14.4052C23.2473 14.4206 23.2318 14.4165 23.2318 14.4165ZM23.2428 14.0043C23.2118 13.996 23.185 13.9722 23.182 13.9215L23.1862 13.9061C23.1831 13.8554 23.2265 13.8172 23.273 13.8297C23.3235 13.8266 23.3616 13.87 23.3492 13.9165C23.3522 13.9672 23.3088 14.0053 23.2624 13.9929C23.2582 14.0084 23.2428 14.0043 23.2428 14.0043ZM23.2383 13.5879C23.2073 13.5796 23.1805 13.5558 23.1733 13.5207L23.1775 13.5052C23.1745 13.4545 23.2179 13.4163 23.2488 13.4246C23.2994 13.4216 23.3375 13.465 23.3292 13.496C23.3322 13.5466 23.2888 13.5848 23.2579 13.5765C23.2537 13.592 23.2383 13.5879 23.2383 13.5879ZM23.1986 13.1787C23.1677 13.1704 23.1409 13.1466 23.1337 13.1115L23.1379 13.096C23.1349 13.0453 23.1628 13.003 23.2134 12.9999C23.2639 12.9969 23.3062 13.0248 23.3092 13.0755L23.2236 13.0857L23.3051 13.0909C23.3081 13.1416 23.2802 13.1839 23.2296 13.187C23.2141 13.1828 23.2141 13.1828 23.1986 13.1787ZM23.1436 12.7654C23.1126 12.7571 23.0858 12.7333 23.0787 12.6981C23.0756 12.6475 23.1036 12.6052 23.1541 12.6021C23.2047 12.5991 23.2315 12.6228 23.2541 12.6621L23.25 12.6776C23.253 12.7282 23.2251 12.7706 23.1745 12.7736C23.1745 12.7736 23.159 12.7695 23.1436 12.7654ZM23.0885 12.352C23.0575 12.3437 23.0308 12.3199 23.0236 12.2848C23.0206 12.2342 23.0485 12.1918 23.0836 12.1846C23.1342 12.1816 23.161 12.2054 23.1836 12.2446C23.1836 12.2446 23.1836 12.2446 23.1794 12.2601C23.1825 12.3108 23.1545 12.3531 23.1194 12.3603C23.104 12.3562 23.0885 12.352 23.0885 12.352ZM22.9828 11.9417C22.9519 11.9335 22.9251 11.9097 22.9334 11.8787C22.9262 11.8435 22.9429 11.7816 22.9934 11.7785C23.0285 11.7713 23.0749 11.7837 23.0934 11.8385C23.1006 11.8737 23.0685 11.9315 23.0334 11.9387C23.0138 11.95 22.9983 11.9459 22.9828 11.9417ZM22.873 11.547C22.8421 11.5387 22.8308 11.519 22.8195 11.4994L22.8236 11.4839C22.8164 11.4488 22.8331 11.3868 22.8836 11.3837C22.9187 11.3765 22.9806 11.3931 22.9836 11.4437L22.9093 11.4736L22.9795 11.4592C23.0021 11.4985 22.97 11.5563 22.9349 11.5635C22.904 11.5553 22.8885 11.5511 22.873 11.547ZM22.7478 11.148C22.7168 11.1397 22.7055 11.1201 22.6942 11.1005C22.6716 11.0612 22.7036 11.0034 22.7387 10.9961C22.778 10.9735 22.8202 11.0014 22.8429 11.0407C22.8655 11.0799 22.8376 11.1223 22.7983 11.145C22.7787 11.1563 22.7633 11.1522 22.7478 11.148ZM22.5833 10.7718C22.5678 10.7677 22.541 10.7439 22.5297 10.7242C22.507 10.685 22.535 10.6426 22.5742 10.6199C22.6135 10.5972 22.6557 10.6252 22.6784 10.6644L22.604 10.6943L22.6784 10.6644C22.701 10.7037 22.6731 10.7461 22.6338 10.7688C22.6184 10.7646 22.5987 10.776 22.5833 10.7718ZM22.4187 10.3956C22.4033 10.3914 22.3765 10.3677 22.3652 10.348C22.3425 10.3087 22.3591 10.2468 22.3942 10.2395C22.4335 10.2169 22.4799 10.2293 22.5025 10.2686C22.5252 10.3079 22.5127 10.3543 22.4735 10.377C22.4538 10.3884 22.4342 10.3997 22.4187 10.3956ZM22.2191 10.0266C22.2037 10.0224 22.1769 9.99863 22.1655 9.97899C22.1429 9.93971 22.1554 9.89322 22.1946 9.87053C22.2339 9.84783 22.2803 9.86027 22.3029 9.89955C22.3256 9.93883 22.3131 9.98531 22.2739 10.008C22.2542 10.0194 22.2346 10.0307 22.2191 10.0266ZM21.9999 9.66889C21.9844 9.66474 21.969 9.6606 21.9576 9.64096C21.935 9.60167 21.9474 9.55519 21.9867 9.53249C22.0259 9.50979 22.0724 9.52223 22.095 9.56151C22.1176 9.60079 22.1052 9.64728 22.0659 9.66998C22.0505 9.66583 22.0308 9.67718 21.9999 9.66889ZM21.761 9.32256C21.7456 9.31842 21.7301 9.31427 21.7188 9.29463C21.6961 9.25535 21.6931 9.20472 21.7324 9.18202C21.7716 9.15932 21.8222 9.15626 21.8448 9.19555L21.8603 9.19969C21.8829 9.23897 21.8705 9.28546 21.8467 9.3123C21.8116 9.3195 21.792 9.33085 21.761 9.32256ZM21.518 8.99173C21.5026 8.98759 21.4871 8.98344 21.4758 8.9638C21.4531 8.92452 21.4501 8.87389 21.4893 8.85119C21.5286 8.82849 21.5792 8.82543 21.6018 8.86471C21.6244 8.904 21.6275 8.95463 21.5882 8.97732C21.5686 8.98867 21.5335 8.99588 21.518 8.99173ZM21.2358 8.6836C21.2203 8.67945 21.2048 8.67531 21.1935 8.65567C21.1667 8.63188 21.1678 8.56575 21.1916 8.53891C21.2154 8.51207 21.266 8.50901 21.3082 8.53694L21.3237 8.54109C21.3463 8.58037 21.3494 8.631 21.3101 8.6537C21.3018 8.68469 21.2667 8.69189 21.2358 8.6836ZM20.9535 8.37547C20.938 8.37132 20.9226 8.36717 20.9267 8.35168L20.9112 8.34753C20.8844 8.32375 20.8814 8.27312 20.9094 8.23078C20.9331 8.20393 20.9837 8.20088 21.026 8.22881C21.0528 8.2526 21.0558 8.30322 21.0278 8.34556C21.0041 8.37241 20.9844 8.38376 20.9535 8.37547ZM20.6475 8.09418C20.632 8.09003 20.632 8.09003 20.6165 8.08588C20.6165 8.08588 20.6165 8.08588 20.6011 8.08174C20.5588 8.05381 20.5558 8.00318 20.5992 7.96498C20.6271 7.92265 20.6777 7.91959 20.7158 7.96301L20.6641 8.0322L20.7271 7.98266C20.7694 8.01059 20.7724 8.06122 20.729 8.09941C20.7135 8.09526 20.6784 8.10247 20.6475 8.09418ZM20.3177 7.83973C20.3022 7.83559 20.3022 7.83559 20.2867 7.83144C20.2444 7.80351 20.2414 7.75288 20.2694 7.71054C20.2973 7.6682 20.3479 7.66514 20.3746 7.68893L20.3901 7.69307C20.4324 7.72101 20.4354 7.77164 20.4075 7.81398C20.3878 7.82532 20.3486 7.84802 20.3177 7.83973ZM19.9878 7.58529C19.9724 7.58114 19.9724 7.58114 19.9569 7.57699C19.9146 7.54906 19.9116 7.49843 19.9395 7.45609C19.9675 7.41376 20.018 7.4107 20.0448 7.43448L20.0603 7.43863C20.1026 7.46656 20.1056 7.51719 20.0777 7.55953C20.0539 7.58637 20.0188 7.59358 19.9878 7.58529ZM15.2432 6.23093C15.2123 6.22264 15.1855 6.19885 15.1825 6.14822C15.1794 6.09759 15.2228 6.0594 15.2693 6.07183C15.3198 6.06878 15.3579 6.1122 15.3455 6.15869C15.3485 6.20932 15.3051 6.24751 15.2587 6.23507C15.2587 6.23507 15.2587 6.23507 15.2432 6.23093ZM19.6301 7.37318L19.6146 7.36903C19.5724 7.3411 19.5694 7.29047 19.5777 7.25948C19.6056 7.21714 19.6407 7.20994 19.6871 7.22238L19.7026 7.22652C19.7448 7.25445 19.7478 7.30508 19.7241 7.33193C19.7003 7.35877 19.661 7.38147 19.6301 7.37318ZM15.6704 6.24575C15.6394 6.23746 15.6013 6.19403 15.6096 6.16304C15.6066 6.11241 15.6459 6.08971 15.6964 6.08665L15.7119 6.0908C15.7625 6.08774 15.7851 6.12702 15.7881 6.17765C15.7912 6.22828 15.7519 6.25098 15.7013 6.25404C15.6859 6.24989 15.6704 6.24575 15.6704 6.24575ZM19.2724 7.16107L19.2569 7.15693C19.2146 7.12899 19.192 7.08971 19.2199 7.04738C19.2478 7.00504 19.2871 6.98234 19.3294 7.01027L19.3448 7.01442C19.3871 7.04235 19.3943 7.07748 19.3818 7.12397C19.3384 7.16216 19.3033 7.16936 19.2724 7.16107ZM16.078 6.27192C16.047 6.26363 16.0089 6.2202 16.0172 6.18921C16.0297 6.14273 16.0534 6.11588 16.104 6.11282C16.1546 6.10977 16.1772 6.14905 16.1802 6.19968C16.1832 6.25031 16.144 6.27301 16.0934 6.27606L16.078 6.27192C16.078 6.27192 16.0934 6.27606 16.078 6.27192ZM18.9063 6.97996C18.8909 6.97581 18.8909 6.97581 18.9063 6.97996L18.8909 6.97581C18.8444 6.96337 18.8259 6.9086 18.8539 6.86626C18.8663 6.81977 18.921 6.80122 18.9633 6.82915C19.0097 6.84159 19.0282 6.89637 19.0003 6.93871C18.9765 6.96555 18.9373 6.98825 18.9063 6.97996ZM16.4968 6.31773C16.4504 6.30529 16.4278 6.26601 16.4361 6.23502C16.4485 6.18854 16.4723 6.16169 16.5229 6.15863L16.5383 6.16278C16.5848 6.17522 16.6074 6.2145 16.6146 6.24963C16.6021 6.29612 16.5629 6.31882 16.4968 6.31773C16.4968 6.31773 16.5123 6.32187 16.4968 6.31773ZM18.5165 6.82568L18.501 6.82154C18.4546 6.8091 18.4361 6.75432 18.4641 6.71199C18.4765 6.6655 18.5312 6.64695 18.5735 6.67488C18.6199 6.68732 18.6384 6.74209 18.6259 6.78858C18.6022 6.81542 18.5474 6.83397 18.5165 6.82568ZM16.9116 6.37903C16.8651 6.3666 16.8425 6.32731 16.855 6.28083C16.8674 6.23435 16.9067 6.21165 16.9376 6.21994L16.9531 6.22408C16.9995 6.23652 17.0221 6.2758 17.0252 6.32643C17.0014 6.35328 16.9621 6.37597 16.9116 6.37903ZM18.1267 6.67141C18.0803 6.65897 18.0463 6.60005 18.0701 6.57321C18.0825 6.52672 18.1218 6.50402 18.1682 6.51646L18.1837 6.52061C18.2301 6.53304 18.2486 6.58782 18.2403 6.61881C18.2123 6.66115 18.1731 6.68385 18.1267 6.67141ZM17.3221 6.45583C17.2757 6.44339 17.2531 6.40411 17.2655 6.35763C17.278 6.31114 17.3172 6.28845 17.3637 6.30088C17.4101 6.31332 17.4327 6.3526 17.4203 6.39909C17.4078 6.44557 17.3686 6.46827 17.3221 6.45583ZM17.7286 6.54813C17.6821 6.53569 17.6595 6.49641 17.672 6.44992C17.6844 6.40344 17.7237 6.38074 17.7701 6.39318L17.7856 6.39732C17.832 6.40976 17.8546 6.44904 17.8422 6.49553C17.8142 6.53786 17.775 6.56056 17.7286 6.54813Z" fill="white"/>
<path d="M22.3884 18.4918L21.9265 18.9161C21.9027 18.9429 21.8563 18.9305 21.8533 18.8799L21.8057 18.2527C21.7955 18.1669 21.874 18.1215 21.9514 18.1422L22.0699 18.257C22.108 18.3005 22.1544 18.3129 22.205 18.3098L22.3722 18.3048C22.4258 18.3524 22.4359 18.4381 22.3884 18.4918Z" fill="white"/>
<path d="M7.65256 26.9488L7.59067 26.9323L12.0995 10.1049C13.0005 6.74257 16.6596 4.78354 20.2646 5.7495C21.8272 6.16822 22.5103 6.89927 22.5103 6.89927L22.4669 6.93746C22.4514 6.93331 21.7993 6.21055 20.2521 5.79598C16.6781 4.83832 13.0582 6.77465 12.1656 10.106L7.65256 26.9488Z" fill="white"/>
<path d="M9.9637 18.3844C9.91728 18.372 9.89464 18.3327 9.9071 18.2862L9.91125 18.2707C9.92371 18.2242 9.97843 18.2057 10.0248 18.2181C10.0713 18.2305 10.0897 18.2853 10.0773 18.3318C10.0494 18.3741 10.0101 18.3968 9.9637 18.3844ZM10.1026 17.9898C10.0562 17.9774 10.0335 17.9381 10.046 17.8916L10.0501 17.8761C10.0626 17.8296 10.1173 17.8111 10.1637 17.8235C10.2101 17.836 10.2286 17.8907 10.2162 17.9372C10.1883 17.9796 10.149 18.0023 10.1026 17.9898ZM10.2528 17.6149C10.2528 17.6149 10.2373 17.6107 10.2528 17.6149C10.2064 17.6025 10.1879 17.5477 10.2004 17.5012L10.2045 17.4857C10.217 17.4392 10.2717 17.4207 10.3139 17.4486C10.3604 17.461 10.3788 17.5158 10.3509 17.5581L10.3468 17.5736C10.3385 17.6046 10.2837 17.6232 10.2528 17.6149ZM10.4072 17.2245C10.3649 17.1965 10.3423 17.1572 10.3547 17.1108L10.3589 17.0953C10.3868 17.0529 10.426 17.0302 10.4683 17.0582C10.5106 17.0861 10.5332 17.1254 10.5053 17.1677C10.4928 17.2142 10.4536 17.2369 10.4072 17.2245ZM10.5925 16.8423C10.577 16.8382 10.577 16.8382 10.5925 16.8423C10.5347 16.8102 10.5276 16.7751 10.54 16.7286L10.5442 16.7131C10.5721 16.6708 10.6072 16.6636 10.6536 16.676C10.6959 16.704 10.7185 16.7432 10.6906 16.7856C10.6627 16.8279 10.6234 16.8506 10.5925 16.8423ZM10.7736 16.4757L10.7582 16.4715C10.7159 16.4436 10.6933 16.4043 10.7212 16.362L10.7253 16.3465C10.7533 16.3042 10.7884 16.297 10.8348 16.3094C10.877 16.3373 10.8842 16.3725 10.8717 16.4189C10.8438 16.4613 10.8046 16.484 10.7736 16.4757ZM10.9744 16.0977L10.9589 16.0936C10.9167 16.0656 10.9095 16.0305 10.922 15.984L10.9261 15.9685C10.954 15.9262 11.0046 15.9231 11.0356 15.9314C11.0778 15.9593 11.0808 16.01 11.0725 16.041C11.0404 16.0988 11.0054 16.106 10.9744 16.0977ZM11.171 15.7352L11.1556 15.7311C11.1133 15.7031 11.1061 15.668 11.1186 15.6215L11.1227 15.606C11.1507 15.5637 11.2012 15.5606 11.228 15.5844C11.2703 15.6123 11.2733 15.663 11.2495 15.6898C11.2525 15.7404 11.2175 15.7476 11.171 15.7352ZM11.3945 15.3965L11.379 15.3923C11.3367 15.3644 11.3337 15.3138 11.3575 15.2869L11.3616 15.2714C11.3896 15.2291 11.4401 15.2261 11.4669 15.2498C11.5092 15.2778 11.5122 15.3284 11.4884 15.3552C11.4646 15.3821 11.4254 15.4048 11.3945 15.3965ZM11.622 15.0423C11.6066 15.0381 11.6066 15.0381 11.5911 15.034C11.5488 15.0061 11.5458 14.9554 11.5696 14.9286L11.5737 14.9131C11.6017 14.8708 11.6522 14.8677 11.6945 14.8956C11.7368 14.9236 11.7398 14.9742 11.7118 15.0165C11.6922 15.0279 11.653 15.0506 11.622 15.0423ZM11.8609 14.7077C11.8454 14.7036 11.8454 14.7036 11.83 14.6994C11.7877 14.6715 11.7847 14.6209 11.8085 14.594L11.8126 14.5785C11.8405 14.5362 11.8911 14.5331 11.9334 14.5611C11.9756 14.589 11.9787 14.6396 11.9507 14.682C11.9311 14.6933 11.8919 14.716 11.8609 14.7077ZM12.1194 14.3618C12.104 14.3577 12.104 14.3577 12.0885 14.3535C12.0462 14.3256 12.0432 14.275 12.067 14.2481L12.0711 14.2326C12.0991 14.1903 12.1496 14.1872 12.1919 14.2152C12.2342 14.2431 12.2372 14.2937 12.2093 14.3361C12.1855 14.3629 12.1504 14.3701 12.1194 14.3618ZM12.3696 14.0469C12.3542 14.0427 12.3542 14.0427 12.3387 14.0386C12.2964 14.0107 12.2934 13.96 12.3214 13.9177L12.3255 13.9022C12.3534 13.8599 12.404 13.8568 12.4421 13.9002C12.4844 13.9282 12.4874 13.9788 12.444 14.017C12.4398 14.0325 12.4006 14.0552 12.3696 14.0469ZM12.6395 13.7206C12.624 13.7165 12.624 13.7165 12.6085 13.7123C12.5663 13.6844 12.5633 13.6338 12.6067 13.5956L12.6108 13.5801C12.6387 13.5377 12.6893 13.5347 12.7274 13.5781C12.7697 13.606 12.7727 13.6567 12.7293 13.6949C12.7055 13.7217 12.6704 13.7289 12.6395 13.7206ZM12.9206 13.414C12.9052 13.4098 12.8897 13.4057 12.8938 13.3902C12.8671 13.3664 12.8486 13.3116 12.892 13.2735C12.9157 13.2466 12.9663 13.2435 13.0086 13.2715C13.0354 13.2953 13.0384 13.3459 13.0105 13.3882C12.9867 13.4151 12.9516 13.4223 12.9206 13.414ZM13.2173 13.1115C13.2018 13.1074 13.1863 13.1032 13.1905 13.0877C13.1637 13.0639 13.1607 13.0133 13.1886 12.971L13.1927 12.9555C13.2165 12.9286 13.2826 12.9297 13.3094 12.9535C13.3361 12.9773 13.335 13.0434 13.3112 13.0703C13.2678 13.1084 13.2327 13.1157 13.2173 13.1115ZM13.5097 12.8245C13.4943 12.8204 13.4788 12.8162 13.4675 12.7966C13.4407 12.7728 13.4418 12.7067 13.4656 12.6798L13.515 12.7429L13.4656 12.6798C13.4894 12.653 13.5554 12.6541 13.5822 12.6779C13.609 12.7016 13.6079 12.7678 13.5841 12.7946L13.5799 12.8101C13.5603 12.8215 13.5252 12.8287 13.5097 12.8245ZM13.8177 12.5417C13.8022 12.5375 13.7868 12.5334 13.7754 12.5137C13.7332 12.4858 13.7456 12.4393 13.7735 12.397C13.8128 12.3743 13.8634 12.3712 13.8902 12.395C13.9128 12.4343 13.9158 12.4849 13.892 12.5118C13.8683 12.5386 13.8332 12.5458 13.8177 12.5417ZM14.1256 12.2588C14.1102 12.2547 14.0947 12.2505 14.0834 12.2309C14.0607 12.1916 14.0577 12.141 14.097 12.1183C14.1362 12.0956 14.1868 12.0925 14.2094 12.1318C14.2321 12.1711 14.2351 12.2217 14.1958 12.2444C14.1762 12.2558 14.1566 12.2671 14.1256 12.2588ZM14.4449 11.9956C14.4294 11.9915 14.414 11.9873 14.4026 11.9677C14.38 11.9284 14.377 11.8778 14.4162 11.8551L14.4204 11.8396C14.4596 11.8169 14.5102 11.8138 14.5328 11.8531C14.5555 11.8924 14.5585 11.943 14.5193 11.9657C14.4955 11.9926 14.4759 12.0039 14.4449 11.9956ZM14.7797 11.7366C14.7642 11.7324 14.7487 11.7283 14.7374 11.7086C14.7147 11.6694 14.7117 11.6187 14.751 11.596C14.7902 11.5733 14.8408 11.5703 14.8634 11.6095C14.8861 11.6488 14.8891 11.6995 14.8498 11.7222C14.8261 11.749 14.7951 11.7407 14.7797 11.7366ZM15.1102 11.493C15.0948 11.4889 15.0793 11.4847 15.068 11.4651C15.0453 11.4258 15.0423 11.3752 15.0816 11.3525C15.1208 11.3298 15.1714 11.3267 15.194 11.366C15.2167 11.4053 15.2197 11.4559 15.1804 11.4786C15.1608 11.4899 15.1257 11.4971 15.1102 11.493ZM15.4563 11.2536C15.4408 11.2494 15.4254 11.2453 15.414 11.2257C15.3914 11.1864 15.3884 11.1357 15.4276 11.113C15.4669 11.0903 15.5133 11.1028 15.5359 11.1421C15.5586 11.1813 15.5461 11.2278 15.5069 11.2505C15.5069 11.2505 15.4718 11.2577 15.4563 11.2536ZM15.7982 11.0297C15.7827 11.0255 15.7673 11.0214 15.756 11.0017C15.7333 10.9624 15.7458 10.916 15.785 10.8933C15.8243 10.8706 15.8707 10.883 15.8933 10.9223C15.916 10.9616 15.9035 11.008 15.8643 11.0307C15.8488 11.0266 15.8137 11.0338 15.7982 11.0297ZM16.1443 10.7902C16.1288 10.7861 16.0979 10.7778 16.0865 10.7582C16.0639 10.7189 16.0764 10.6724 16.1156 10.6497C16.1548 10.627 16.2013 10.6394 16.2239 10.6787C16.2465 10.718 16.2341 10.7645 16.1948 10.7872C16.1907 10.8027 16.1752 10.7985 16.1443 10.7902ZM16.513 10.5901C16.4975 10.586 16.4666 10.5777 16.4552 10.558C16.4326 10.5187 16.4451 10.4723 16.4843 10.4496C16.5236 10.4269 16.57 10.4393 16.5926 10.4786C16.6152 10.5179 16.6028 10.5643 16.5635 10.587C16.5481 10.5829 16.5284 10.5943 16.513 10.5901ZM16.8704 10.3703C16.8549 10.3662 16.8239 10.3579 16.8126 10.3382C16.79 10.299 16.8024 10.2525 16.8417 10.2298C16.8809 10.2071 16.9274 10.2195 16.95 10.2588C16.9726 10.2981 16.9602 10.3446 16.9209 10.3673C16.9168 10.3828 16.9013 10.3786 16.8704 10.3703ZM17.2349 10.1857C17.2194 10.1815 17.1926 10.1578 17.1813 10.1381C17.1587 10.0988 17.1711 10.0523 17.2104 10.0296C17.2496 10.007 17.2961 10.0194 17.3187 10.0587C17.3413 10.0979 17.3289 10.1444 17.2896 10.1671C17.2855 10.1826 17.2504 10.1898 17.2349 10.1857ZM17.6191 9.98969C17.6036 9.98555 17.5768 9.96176 17.5655 9.94212C17.5429 9.90284 17.5553 9.85636 17.5946 9.83366C17.6338 9.81096 17.6802 9.8234 17.7029 9.86268C17.7255 9.90196 17.7131 9.94844 17.6738 9.97114C17.6542 9.98249 17.6346 9.99384 17.6191 9.98969ZM17.9836 9.80505C17.9682 9.80091 17.9414 9.77712 17.93 9.75748C17.9074 9.7182 17.9199 9.67171 17.9591 9.64902C17.9984 9.62632 18.0448 9.63875 18.0633 9.69353C18.0859 9.73281 18.0734 9.77929 18.0187 9.79785C18.03 9.81749 18.0146 9.81334 17.9836 9.80505ZM18.3595 9.64005C18.3286 9.63176 18.3172 9.61212 18.3059 9.59248C18.2833 9.5532 18.3112 9.51086 18.3505 9.48816C18.3897 9.46546 18.4361 9.4779 18.4546 9.53267C18.4772 9.57196 18.4648 9.61844 18.4101 9.63699L18.3946 9.63285C18.4101 9.63699 18.3904 9.64834 18.3595 9.64005ZM18.7508 9.47919C18.7199 9.4709 18.7086 9.45126 18.6973 9.43162C18.6746 9.39234 18.7025 9.35 18.7418 9.3273C18.781 9.3046 18.8233 9.33254 18.8459 9.37182C18.8686 9.4111 18.8407 9.45344 18.8014 9.47614C18.7859 9.47199 18.7663 9.48334 18.7508 9.47919ZM19.1422 9.31834C19.1112 9.31005 19.0999 9.29041 19.0886 9.27077C19.066 9.23148 19.0939 9.18915 19.1331 9.16645L19.1629 9.24086L19.1331 9.16645C19.1724 9.14375 19.2147 9.17168 19.2373 9.21096C19.2599 9.25024 19.232 9.29258 19.1928 9.31528C19.1731 9.32663 19.1577 9.32248 19.1422 9.31834ZM19.5294 9.17298C19.4984 9.16468 19.4871 9.14504 19.4758 9.1254C19.4532 9.08612 19.4811 9.04378 19.5203 9.02109C19.5596 8.99839 19.6018 9.02632 19.6245 9.0656C19.6471 9.10488 19.6192 9.14722 19.5799 9.16992C19.5645 9.16577 19.5449 9.17712 19.5294 9.17298ZM19.9166 9.02761C19.8856 9.01932 19.8743 8.99968 19.863 8.98004C19.8403 8.94076 19.8683 8.89842 19.9075 8.87572C19.9468 8.85303 19.989 8.88096 20.0117 8.92024C20.0343 8.95952 20.0064 9.00186 19.9671 9.02456C19.9475 9.03591 19.932 9.03176 19.9166 9.02761ZM20.3192 8.8864C20.2883 8.87811 20.277 8.85847 20.2656 8.83883C20.243 8.79955 20.2709 8.75721 20.3102 8.73451C20.3494 8.71181 20.4072 8.74389 20.4102 8.79452C20.4328 8.8338 20.4007 8.89163 20.3502 8.89469C20.3502 8.89469 20.3347 8.89055 20.3192 8.8864ZM20.7177 8.76068C20.6868 8.75239 20.6755 8.73275 20.6642 8.71311C20.657 8.67797 20.6694 8.63149 20.7087 8.60879C20.7438 8.60159 20.8057 8.61817 20.8087 8.6688C20.8159 8.70393 20.7993 8.76591 20.7487 8.76897C20.7487 8.76897 20.7332 8.76482 20.7177 8.76068ZM21.1121 8.65045C21.0812 8.64216 21.0698 8.62252 21.0585 8.60288C21.0513 8.56774 21.0638 8.52126 21.1185 8.50271L21.134 8.50685C21.1691 8.49965 21.231 8.51623 21.234 8.56686C21.2412 8.602 21.2246 8.66398 21.174 8.66704C21.143 8.65874 21.1276 8.6546 21.1121 8.65045ZM21.5065 8.54023C21.4755 8.53194 21.4642 8.51229 21.457 8.47716C21.4499 8.44202 21.4665 8.38005 21.517 8.37699C21.5521 8.36978 21.614 8.38637 21.617 8.437C21.6242 8.47213 21.6076 8.53411 21.557 8.53717L21.5416 8.53302C21.5416 8.53302 21.5219 8.54437 21.5065 8.54023ZM21.9163 8.43415C21.8853 8.42586 21.8586 8.40207 21.8669 8.37108C21.8597 8.33594 21.8721 8.28946 21.9269 8.27091L21.9423 8.27505C21.9774 8.26785 22.0352 8.29993 22.0423 8.33506C22.0495 8.3702 22.0174 8.42803 21.9823 8.43523C21.9472 8.44244 21.9318 8.43829 21.9163 8.43415ZM22.3261 8.32807C22.2952 8.31978 22.2684 8.29599 22.2612 8.26085C22.2541 8.22572 22.2665 8.17923 22.3212 8.16068C22.3563 8.15348 22.4141 8.18556 22.4212 8.22069C22.4284 8.25583 22.3963 8.31366 22.3612 8.32086C22.3416 8.33221 22.3416 8.33221 22.3261 8.32807ZM22.7122 8.24883C22.6812 8.24054 22.6544 8.21675 22.6473 8.18162C22.6443 8.13099 22.6722 8.08865 22.7073 8.08144L22.7175 8.16721L22.7073 8.08144C22.7578 8.07839 22.8001 8.10632 22.8073 8.14145C22.8144 8.17659 22.7824 8.23442 22.7473 8.24163L22.7318 8.23748C22.7473 8.24163 22.7277 8.25298 22.7122 8.24883ZM23.1333 8.16239C23.1024 8.1541 23.0756 8.13031 23.0684 8.09518C23.0654 8.04455 23.0933 8.00221 23.1284 7.99501C23.179 7.99195 23.2213 8.01988 23.2284 8.05501C23.2314 8.10564 23.2035 8.14798 23.1684 8.15519L23.153 8.15104C23.1488 8.16654 23.1333 8.16239 23.1333 8.16239ZM23.5349 8.0873C23.5039 8.07901 23.4771 8.05522 23.47 8.02009C23.4669 7.96946 23.4949 7.92712 23.5454 7.92406C23.596 7.921 23.6383 7.94893 23.6454 7.98407C23.6484 8.0347 23.6205 8.07704 23.5854 8.08424L23.57 8.0801C23.5658 8.09559 23.5503 8.09145 23.5349 8.0873ZM23.9519 8.01636C23.9209 8.00806 23.8941 7.98428 23.887 7.94914C23.8839 7.89851 23.9077 7.87167 23.947 7.84897L23.9624 7.85312C24.013 7.85006 24.0553 7.87799 24.0583 7.92862C24.0613 7.97925 24.0334 8.02159 23.9828 8.02465C23.9828 8.02465 23.9673 8.0205 23.9519 8.01636ZM24.3647 7.9609C24.3338 7.95261 24.307 7.92883 24.2998 7.89369C24.2968 7.84306 24.3247 7.80072 24.3753 7.79767L24.3855 7.88343L24.3753 7.79767C24.4258 7.79461 24.4681 7.82254 24.4711 7.87317C24.4741 7.9238 24.4462 7.96614 24.3956 7.9692L24.3802 7.96505C24.3843 7.94956 24.3647 7.9609 24.3647 7.9609ZM24.7817 7.88996C24.7508 7.88167 24.724 7.85788 24.7168 7.82275C24.7138 7.77212 24.7376 7.74527 24.7923 7.72672L24.8078 7.73087C24.8583 7.72781 24.9006 7.75574 24.9036 7.80637C24.9066 7.857 24.8787 7.89934 24.8281 7.9024C24.7972 7.8941 24.7972 7.8941 24.7817 7.88996ZM25.1904 7.85C25.1595 7.84171 25.1327 7.81793 25.1255 7.78279C25.1225 7.73216 25.1504 7.68982 25.201 7.68676C25.2515 7.68371 25.2938 7.71164 25.2968 7.76227C25.2998 7.8129 25.2719 7.85524 25.2213 7.8583L25.2059 7.85415L25.1904 7.85Z" fill="white"/>
<path d="M21.7512 6.9451L21.7482 6.89447L22.4747 6.90644L22.3509 6.19239L22.417 6.19348L22.555 6.9778L21.7512 6.9451Z" fill="white"/>
<path d="M11.1461 13.7856C11.8867 10.7124 13.4796 9.59472 14.6948 9.20621C16.2424 8.69089 17.9289 9.14277 18.71 9.81708C18.7523 9.84501 19.6406 10.6145 19.7632 11.3946L19.7085 11.4132C19.5817 10.6485 18.6738 9.89041 18.6624 9.87077C17.8772 9.21196 16.2371 8.77251 14.7091 9.27648C13.5094 9.66914 11.9361 10.7754 11.2039 13.8176L11.1461 13.7856Z" fill="white"/>
<path d="M19.751 11.441L19.0891 11.0644L19.117 11.0221L19.7211 11.3666L19.9306 10.7086L19.9925 10.7252L19.751 11.441Z" fill="white"/>
<path d="M25.4618 7.39144L26.1147 7.61619C26.1611 7.62863 26.1641 7.67926 26.1404 7.7061L25.6022 8.04352C25.5392 8.09306 25.4392 8.03305 25.4248 7.96278L25.4705 7.79233C25.483 7.74585 25.4799 7.69522 25.4418 7.65179L25.3358 7.49052C25.3018 7.4316 25.3845 7.37071 25.4618 7.39144Z" fill="white"/>
<path d="M9.61456 21.5458C9.59909 21.5417 9.59909 21.5417 9.58362 21.5375C9.54135 21.5096 9.53833 21.4589 9.56626 21.4166L9.63532 21.4683L9.56626 21.4166C9.59419 21.3743 9.64476 21.3712 9.67155 21.395C9.71381 21.4229 9.71683 21.4736 9.69306 21.5004L9.6889 21.5159C9.6806 21.5469 9.66098 21.5582 9.61456 21.5458ZM9.86892 21.2154C9.85345 21.2112 9.85345 21.2112 9.83798 21.2071C9.79572 21.1792 9.7927 21.1285 9.82063 21.0862C9.84855 21.0439 9.89912 21.0408 9.94139 21.0687C9.98365 21.0967 9.98667 21.1473 9.95874 21.1896L9.95459 21.2051C9.93496 21.2165 9.89987 21.2237 9.86892 21.2154ZM10.1346 20.9046C10.1191 20.9005 10.1037 20.8963 10.1078 20.8808C10.081 20.857 10.078 20.8064 10.1059 20.7641C10.1339 20.7217 10.1803 20.7342 10.2225 20.7621C10.2648 20.79 10.2524 20.8365 10.2244 20.8788L10.2203 20.8943C10.2006 20.9057 10.1656 20.9129 10.1346 20.9046ZM10.4312 20.6021C10.4158 20.598 10.4003 20.5938 10.389 20.5742C10.3622 20.5504 10.3592 20.4998 10.3871 20.4574C10.4109 20.4306 10.4769 20.4317 10.5037 20.4555C10.5305 20.4792 10.5294 20.5454 10.5056 20.5722C10.4973 20.6032 10.4622 20.6104 10.4312 20.6021ZM10.7547 20.3234C10.7392 20.3193 10.7237 20.3151 10.7124 20.2955C10.6898 20.2562 10.6867 20.2056 10.726 20.1829C10.7652 20.1602 10.8158 20.1571 10.8384 20.1964C10.8611 20.2357 10.8641 20.2863 10.8248 20.309C10.8011 20.3359 10.7701 20.3276 10.7547 20.3234ZM11.0852 20.0799C11.0698 20.0757 11.0543 20.0716 11.043 20.0519C11.0203 20.0126 11.0173 19.962 11.0566 19.9393C11.0958 19.9166 11.1422 19.9291 11.169 19.9528C11.1917 19.9921 11.1792 20.0386 11.1554 20.0655C11.1358 20.0768 11.1007 20.084 11.0852 20.0799ZM18.5194 21.8559C18.4885 21.8476 18.4771 21.828 18.47 21.7929C18.4628 21.7577 18.4794 21.6958 18.53 21.6927C18.5651 21.6855 18.6115 21.6979 18.6341 21.7372L18.63 21.7527C18.6371 21.7878 18.6205 21.8498 18.57 21.8529C18.539 21.8446 18.5349 21.8601 18.5194 21.8559ZM11.4272 19.8559C11.4117 19.8518 11.3849 19.828 11.3694 19.8239C11.3468 19.7846 11.3592 19.7381 11.3985 19.7154C11.4377 19.6927 11.4841 19.7051 11.5068 19.7444C11.5294 19.7837 11.517 19.8302 11.4777 19.8529C11.4736 19.8684 11.4581 19.8642 11.4272 19.8559ZM18.3745 21.4684C18.359 21.4642 18.3322 21.4404 18.3209 21.4208C18.2983 21.3815 18.3149 21.3195 18.35 21.3123C18.3892 21.2896 18.4356 21.3021 18.4583 21.3413C18.4809 21.3806 18.453 21.423 18.4137 21.4457C18.4096 21.4612 18.39 21.4725 18.3745 21.4684ZM11.7959 19.6558C11.7804 19.6517 11.7536 19.6279 11.7423 19.6082C11.7196 19.5689 11.7321 19.5225 11.7868 19.5039C11.8261 19.4812 11.8725 19.4936 11.8951 19.5329C11.9178 19.5722 11.9053 19.6187 11.8661 19.6414C11.8423 19.6682 11.8268 19.6641 11.7959 19.6558ZM12.1872 19.4949C12.1563 19.4866 12.1449 19.467 12.1336 19.4474C12.111 19.4081 12.1389 19.3657 12.1782 19.3431C12.2174 19.3204 12.2597 19.3483 12.2823 19.3876C12.3049 19.4268 12.277 19.4692 12.2378 19.4919C12.2181 19.5032 12.2027 19.4991 12.1872 19.4949ZM18.1749 21.0993C18.1594 21.0952 18.1439 21.091 18.1326 21.0714C18.11 21.0321 18.1224 20.9856 18.1617 20.9629C18.2009 20.9402 18.2474 20.9527 18.27 20.992C18.2926 21.0312 18.2802 21.0777 18.2409 21.1004C18.2255 21.0963 18.1904 21.1035 18.1749 21.0993ZM12.5857 19.3692C12.5548 19.3609 12.5434 19.3413 12.5321 19.3216C12.525 19.2865 12.5374 19.24 12.5767 19.2173C12.6118 19.2101 12.6736 19.2267 12.6767 19.2773C12.6838 19.3125 12.6672 19.3745 12.6167 19.3775C12.6208 19.362 12.6012 19.3734 12.5857 19.3692ZM17.936 20.753C17.9206 20.7489 17.9051 20.7447 17.8938 20.7251L17.8783 20.7209C17.8557 20.6817 17.8526 20.631 17.8919 20.6083C17.9311 20.5856 17.9817 20.5826 18.0043 20.6218C18.027 20.6611 18.03 20.7118 17.9907 20.7345C17.9824 20.7654 17.9515 20.7572 17.936 20.753ZM12.9801 19.259C12.9491 19.2507 12.9223 19.2269 12.9152 19.1918C12.908 19.1566 12.9205 19.1102 12.9752 19.0916L12.9906 19.0958C13.0412 19.0927 13.0835 19.1206 13.0906 19.1558C13.0937 19.2064 13.0657 19.2487 13.0306 19.2559C13.011 19.2673 12.9955 19.2631 12.9801 19.259ZM17.6341 20.4562C17.6187 20.4521 17.6032 20.4479 17.5919 20.4283C17.5651 20.4045 17.5466 20.3497 17.59 20.3115C17.6138 20.2847 17.6685 20.2661 17.7066 20.3096L17.7221 20.3137C17.7489 20.3375 17.7519 20.3881 17.724 20.4305C17.7002 20.4573 17.6651 20.4645 17.6341 20.4562ZM13.3816 19.1839C13.3507 19.1756 13.3239 19.1518 13.3167 19.1167C13.3137 19.0661 13.3416 19.0237 13.3922 19.0207L13.4024 19.1064L13.3922 19.0207C13.4427 19.0176 13.485 19.0455 13.488 19.0962C13.491 19.1468 13.4631 19.1891 13.4125 19.1922L13.3971 19.188C13.4125 19.1922 13.3971 19.188 13.3816 19.1839ZM17.3281 20.1749C17.3126 20.1708 17.3126 20.1708 17.2972 20.1666C17.2549 20.1387 17.2519 20.0881 17.2798 20.0457C17.3077 20.0034 17.3583 20.0004 17.3851 20.0241L17.4006 20.0283C17.4428 20.0562 17.4459 20.1068 17.4179 20.1492C17.3941 20.176 17.3591 20.1832 17.3281 20.1749ZM13.8058 19.1481C13.7748 19.1398 13.748 19.116 13.7409 19.0809C13.7378 19.0303 13.7616 19.0034 13.8122 19.0003L13.8277 19.0045C13.8782 19.0014 13.9163 19.0449 13.908 19.0759C13.9111 19.1265 13.8677 19.1647 13.8367 19.1564C13.8212 19.1522 13.8212 19.1522 13.8058 19.1481ZM16.9941 19.936C16.9787 19.9318 16.9787 19.9318 16.9632 19.9277C16.9209 19.8998 16.9179 19.8491 16.9262 19.8181C16.9542 19.7758 17.0047 19.7727 17.0315 19.7965L17.047 19.8007C17.0892 19.8286 17.0923 19.8792 17.0685 19.9061C17.0602 19.9371 17.0251 19.9443 16.9941 19.936ZM14.2216 19.1433C14.1907 19.135 14.168 19.0957 14.1609 19.0606C14.1579 19.0099 14.1971 18.9872 14.2477 18.9842L14.2424 19.0658L14.2477 18.9842C14.2982 18.9811 14.3364 19.0245 14.3239 19.071C14.3269 19.1217 14.2835 19.1599 14.2371 19.1474L14.2216 19.1433ZM16.6323 19.7394L16.6168 19.7352C16.5745 19.7073 16.5519 19.668 16.5798 19.6257C16.6077 19.5833 16.647 19.5606 16.6892 19.5886L16.7047 19.5927C16.747 19.6207 16.7542 19.6558 16.7417 19.7023C16.7024 19.725 16.6632 19.7477 16.6323 19.7394ZM14.6333 19.1539C14.6024 19.1457 14.5643 19.1022 14.5726 19.0712C14.585 19.0248 14.6088 18.9979 14.6594 18.9949C14.71 18.9918 14.7326 19.0311 14.7356 19.0817C14.7232 19.1282 14.6994 19.155 14.6488 19.1581L14.6333 19.1539C14.6333 19.1539 14.6488 19.1581 14.6333 19.1539ZM16.2507 19.5541L16.2353 19.55C16.1889 19.5375 16.1704 19.4828 16.1983 19.4404C16.2262 19.3981 16.2655 19.3754 16.3077 19.4033C16.3541 19.4157 16.3726 19.4705 16.3447 19.5129C16.3364 19.5439 16.2972 19.5666 16.2507 19.5541ZM15.0481 19.2153C15.0017 19.2028 14.979 19.1635 14.9915 19.1171C15.0039 19.0706 15.0432 19.0479 15.0937 19.0448C15.1402 19.0572 15.1628 19.0965 15.17 19.1317C15.1575 19.1781 15.1183 19.2008 15.0832 19.2081L15.0481 19.2153ZM15.8568 19.4153C15.8104 19.4029 15.7764 19.344 15.8002 19.3171C15.8126 19.2707 15.8519 19.248 15.8983 19.2604L15.9138 19.2645C15.9602 19.277 15.9787 19.3317 15.9704 19.3627C15.9424 19.4051 15.9032 19.4278 15.8568 19.4153ZM15.4586 19.2921C15.4122 19.2796 15.3896 19.2403 15.402 19.1938C15.4145 19.1474 15.4538 19.1247 15.5002 19.1371L15.5156 19.1413C15.5621 19.1537 15.5847 19.193 15.5722 19.2395C15.5443 19.2818 15.5051 19.3045 15.4586 19.2921Z" fill="white"/>
<path d="M18.8133 21.6857L18.6555 22.2745C18.6472 22.3055 18.5925 22.324 18.5698 22.2847L18.2012 21.804C18.1517 21.7409 18.188 21.6676 18.2623 21.6377L18.4212 21.6637C18.4676 21.6761 18.5182 21.673 18.5616 21.6348L18.7031 21.5399C18.7846 21.5451 18.834 21.6082 18.8133 21.6857Z" fill="white"/>
<path d="M8.27762 24.6752L8.21573 24.6587C9.06419 21.8635 10.6776 19.5556 12.8728 17.9849C15.1352 16.3491 17.9897 15.5363 21.1008 15.6225L21.0996 15.6887C17.9886 15.6024 15.1537 16.4039 12.9068 18.0438C10.7311 19.6032 9.12193 21.8956 8.27762 24.6752Z" fill="white"/>
<path d="M20.6847 16.1254L20.6466 16.082L21.0972 15.6381L20.5632 15.2791L20.6066 15.2409L21.1829 15.6278L20.6847 16.1254Z" fill="white"/>
</svg>
